<svg width="232" height="96" viewBox="0 0 232 96" fill="none" xmlns="http://www.w3.org/2000/svg">
<path fill-rule="evenodd" clip-rule="evenodd" d="M153.682 19.6099C152.175 24.2445 146.22 27.424 144.174 26.8759C142.237 26.3569 140.787 22.356 142.308 16.6771C143.83 10.9981 148.892 11.5077 148.712 17.0376C148.646 19.0427 155.19 14.9753 153.682 19.6099Z" fill="#F24646"/>
<path fill-rule="evenodd" clip-rule="evenodd" d="M227.608 30.7248C225.039 30.7248 222.06 32.9855 218.257 36.9925C217.744 37.5064 217.435 37.8146 217.024 37.8146C216.818 37.8146 216.818 37.7119 216.818 37.5064C216.818 36.5815 218.257 33.9097 218.257 32.6766C218.257 31.8545 217.332 31.1352 216.304 31.1352C214.866 31.1352 214.147 32.3683 213.428 34.8345C213.171 35.8622 212.657 37.3515 212.002 39.0731C211.83 39.2917 211.655 39.5198 211.474 39.7671C207.672 44.6989 201.199 51.5839 198.732 51.5839C197.911 51.5839 197.397 50.7618 197.397 49.2204C197.397 47.679 197.911 45.4183 198.732 42.8499C199.451 40.383 200.993 37.9174 202.02 36.4787C202.74 35.5539 203.254 34.4235 203.254 34.1153C203.254 33.1904 202.843 32.1628 201.096 32.1628C200.479 32.1628 199.451 32.9856 198.527 34.218C197.089 36.0677 195.136 39.9726 193.595 42.5416C190.512 47.2679 183.73 52.3033 181.88 52.3033C180.852 52.3033 180.648 51.6867 180.648 50.8646C180.648 47.8852 187.018 40.5892 187.018 34.5263C187.018 32.7794 186.813 31.3407 184.86 31.3407C182.908 31.3407 182.291 33.0877 182.291 35.4511C182.291 35.5224 182.279 35.593 182.277 35.6635C180.481 36.5096 177.637 37.9174 174.687 37.9174C173.044 37.9174 173.044 35.5539 173.044 34.7318C173.044 33.1904 171.297 31.3407 167.495 31.3407C164.133 31.3407 160.59 33.3404 157.771 36.4452C156.884 36.6227 155.753 37.1481 154.754 37.8147C149.41 41.3085 145.916 44.4934 145.197 44.4934C144.992 44.4934 144.992 44.0831 144.992 43.5693C144.992 41.2058 145.916 34.7318 145.916 32.8821C145.916 31.649 143.964 30.6214 143.245 30.6214C141.806 30.6214 141.395 31.4442 141.395 32.8821C141.395 33.4528 141.217 36.0944 140.964 39.1554C140.806 39.3492 140.643 39.552 140.47 39.7671C136.771 44.6989 130.913 52.0977 127.523 52.0977C126.29 52.0977 125.981 51.2756 125.981 49.837C125.981 45.83 128.756 38.534 128.756 36.376C128.756 34.218 126.701 32.7794 125.057 32.7794C121.768 32.7794 116.22 36.787 112.829 41.514C112.932 40.5892 113.651 37.8146 113.651 35.3484C113.651 32.6766 110.568 31.649 108.718 31.649C105.944 31.649 100.497 35.7594 97.3119 40.1782C97.7236 38.7395 100.703 31.8545 100.703 30.1076C100.703 28.5662 99.4699 28.1558 98.2374 28.1558C97.4146 28.1558 96.2842 29.2855 95.5649 31.5462C95.1971 32.6869 94.8086 33.8597 94.4113 35.0435C93.3508 35.0819 89.3725 37.9174 85.1874 37.9174C83.5433 37.9174 83.5433 35.5539 83.5433 34.7318C83.5433 33.1904 81.797 31.3407 77.9949 31.3407C75.7163 31.3407 73.3562 32.2608 71.1941 33.8179C70.5762 33.537 69.761 33.3959 68.8471 33.3959C66.6898 33.3959 61.6545 34.0132 55.3861 35.1429C53.0233 31.4442 49.3232 30.1076 48.8094 29.6972C58.4689 24.4557 65.2505 15.5169 65.2505 8.52847C65.2505 4.41871 62.5794 0 53.5371 0C29.2862 0 0 19.4211 0 34.8345C0 37.1981 1.0276 38.1229 2.67247 38.1229C4.21388 38.1229 5.65186 36.9925 5.65186 35.4511C5.65186 34.4235 4.82978 33.6014 4.82978 32.6766C4.82978 22.2984 32.7801 3.80214 51.2763 3.80214C56.0027 3.80214 60.0103 4.82976 60.0103 9.14571C60.0103 18.599 48.5018 26.3061 40.8975 28.2579C36.9926 29.2855 35.0408 29.6972 35.0408 32.06C35.0408 33.2932 35.7594 33.6014 36.7871 33.6014C38.1236 33.6014 39.9726 33.0877 41.8223 33.0877C45.9328 33.0877 48.9128 34.0132 50.6591 36.1705C43.8776 37.8146 36.0684 40.1782 29.2862 43.5692C27.9503 44.2886 26.6144 44.9044 25.3813 45.6245C26.6144 41.4106 28.8752 36.2732 32.6766 29.5938C39.6644 17.1604 46.7542 14.0775 46.7542 11.7147C46.7542 10.4816 45.419 9.1457 43.9796 9.1457C42.2334 9.1457 36.5822 13.7699 28.3614 28.6696C23.9426 36.6843 21.4764 43.5692 20.2432 48.5011C8.94022 55.3861 0.20554 63.2986 0.20554 71.6216C0.20554 76.5534 4.41874 81.3832 12.0231 81.3832C31.3407 81.3832 57.4413 60.0103 57.4413 42.7471C57.4413 41.3085 57.2358 39.8691 56.9275 38.6367C61.5292 37.855 65.3176 37.5153 67.4372 37.4283C64.675 40.8728 62.7869 45.408 62.7869 50.0425C62.7869 54.4612 65.6643 56.6192 68.5409 56.6192C75.7341 56.6192 80.4604 48.5011 82.6191 42.3361C83.0295 42.3361 87.7565 42.3361 91.5586 40.5892C91.9711 40.4021 92.3519 40.2192 92.7048 40.0404C90.1658 47.3769 87.7558 54.0392 87.7558 55.0778C87.7558 56.4137 88.9889 57.3385 89.9138 57.3385C91.4545 57.3385 91.558 55.5916 92.4821 53.6391C93.6132 51.2756 95.3594 47.679 97.2098 45.1106C100.806 39.9726 106.149 35.9649 107.382 35.9649C108.513 35.9649 109.027 36.787 109.027 37.6091C109.027 40.6919 104.402 52.406 104.402 53.6391C104.402 54.7695 105.944 56.1054 106.971 56.1054C107.896 56.1054 108.718 54.564 109.746 52.2005C111.287 48.1928 119.713 37.1981 123.001 37.1981C123.824 37.1981 124.029 37.8146 124.029 38.5339C124.029 39.2533 121.768 46.5486 121.768 50.7618C121.768 54.2557 123.515 56.2081 126.29 56.2081C130.441 56.2081 136.38 50.1206 140.382 45.4046C140.121 47.8475 139.856 49.7986 139.648 50.248C139.032 51.5839 130.195 59.3937 123.619 70.1836C117.761 79.8418 116.425 86.0075 116.425 89.8096C116.425 93.7138 119.508 95.6669 121.46 95.6669C124.954 95.6669 131.633 90.9393 136.977 77.7866C142.423 64.6339 142.628 54.1529 143.45 52.3032C145.04 48.621 149.696 45.4847 153.756 42.8376C152.831 45.11 152.287 47.5618 152.287 50.0425C152.287 54.4612 155.164 56.6192 158.042 56.6192C165.235 56.6192 169.961 48.5011 172.119 42.3361C172.525 42.3361 177.149 42.3334 180.928 40.6447C179.085 44.6058 176.023 48.4011 176.023 51.995C176.023 53.6391 176.947 56.2081 180.339 56.2081C184.655 56.2081 190.204 51.0701 193.902 47.3714C193.902 48.0901 193.697 49.0149 193.697 50.1452C193.697 52.6115 194.416 55.4888 198.013 55.4888C200.811 55.4888 204.555 52.417 208.171 48.6881C207.251 51.1544 206.543 53.3096 206.543 54.0502C206.543 55.0778 207.879 56.4137 208.907 56.4137C209.831 56.4137 211.681 50.4542 214.044 46.7542C217.332 41.6161 224.115 35.0401 225.553 35.0401C226.17 35.0401 226.478 35.3484 226.478 35.7594C226.478 36.2732 225.758 37.5063 225.758 38.5339C225.758 39.6643 226.786 40.4864 227.711 40.4864C230.28 40.4864 231.307 37.5063 231.307 34.3207C231.307 31.9579 229.56 30.7248 227.608 30.7248L227.608 30.7248ZM12.4341 77.3762C8.22092 77.3762 4.11048 75.6293 4.11048 71.2106C4.11048 65.7643 10.0699 59.5986 19.0101 53.6391C18.9081 55.0778 18.8046 56.0026 18.8046 56.4137C18.8046 58.3661 20.9626 59.4965 22.2985 59.4965C23.6344 59.4965 23.6344 58.0572 23.6344 57.133C23.6344 55.2833 23.6344 53.1253 24.0454 50.5563C26.1006 49.4266 28.1559 48.1928 30.2111 47.1659C37.3009 43.3637 45.419 41.0002 52.3033 39.5616C52.6115 40.5892 52.7143 41.7196 52.7143 42.952C52.7143 56.1054 29.08 77.3762 12.4341 77.3762ZM69.6712 53.0226C68.3353 53.0226 67.1022 51.8922 67.1022 50.0425C67.1022 43.3637 72.9596 35.965 77.3776 35.965C77.5838 35.965 77.6866 36.0677 77.6866 36.2732C77.6866 36.6843 77.3776 37.5064 77.3776 38.534C77.3776 39.8692 78.9191 40.3829 78.9191 40.6919C78.9191 43.7748 73.6789 53.0226 69.6712 53.0226ZM133.071 76.0396C128.345 87.4461 124.235 91.5566 122.179 91.5566C121.563 91.5566 120.638 91.0427 120.638 89.3986C120.638 87.6516 122.179 80.048 126.804 72.752C133.175 62.8869 137.799 57.2357 137.799 57.2357C137.799 63.709 135.436 70.3885 133.071 76.0396V76.0396ZM159.172 53.0226C157.836 53.0226 156.603 51.8922 156.603 50.0425C156.603 43.3637 162.46 35.965 166.878 35.965C167.084 35.965 167.187 36.0677 167.187 36.2732C167.187 36.6843 166.878 37.5064 166.878 38.534C166.878 39.8692 168.42 40.3829 168.42 40.6919C168.42 43.7748 163.18 53.0226 159.172 53.0226Z" fill="white"/>
</svg>
