<svg width="14" height="14" viewBox="0 0 14 14" fill="none" xmlns="http://www.w3.org/2000/svg">
<path d="M6.99905 0.00485229C3.13618 0.00485229 0.00390625 3.13712 0.00390625 6.99999C0.00390625 10.8629 3.13618 13.9951 6.99905 13.9951C10.8619 13.9951 13.9942 10.8629 13.9942 6.99999C13.9942 3.13712 10.8619 0.00485229 6.99905 0.00485229ZM10.2975 10.2984C10.1643 10.4315 9.99044 10.4976 9.81653 10.4976C9.64263 10.4976 9.46872 10.4315 9.33562 10.2984L6.51813 7.48091C6.32868 7.29146 6.26844 7.00874 6.36268 6.75905L7.43139 3.94156C7.56449 3.59083 7.95699 3.41401 8.30869 3.54711C8.66039 3.68022 8.83624 4.07272 8.70314 4.42442L7.79086 6.82997L10.2975 9.33657C10.5627 9.6018 10.5627 10.0332 10.2975 10.2984Z" fill="#718096"/>
</svg>
