<svg width="20" height="20" viewBox="0 0 20 20" fill="none" xmlns="http://www.w3.org/2000/svg">
<path d="M16.875 8.75V5" stroke="#718096" stroke-width="2" stroke-linecap="round" stroke-linejoin="round"/>
<path d="M18.75 6.875H15" stroke="#718096" stroke-width="2" stroke-linecap="round" stroke-linejoin="round"/>
<path d="M13.125 1.875V4.375" stroke="#718096" stroke-width="2" stroke-linecap="round" stroke-linejoin="round"/>
<path d="M14.375 3.125H11.875" stroke="#718096" stroke-width="2" stroke-linecap="round" stroke-linejoin="round"/>
<path d="M16.9301 11.9219C15.7031 12.266 14.4065 12.2772 13.1736 11.9545C11.9407 11.6318 10.816 10.9868 9.91481 10.0856C9.01366 9.1845 8.36862 8.05973 8.04591 6.82684C7.72321 5.59396 7.73449 4.2974 8.07859 3.07031C6.86879 3.40704 5.76833 4.05486 4.88682 4.94924C4.00531 5.84363 3.37351 6.95336 3.05436 8.16791C2.7352 9.38246 2.73983 10.6594 3.06778 11.8716C3.39573 13.0838 4.03556 14.189 4.92353 15.0769C5.8115 15.9649 6.91663 16.6047 8.12883 16.9327C9.34103 17.2606 10.618 17.2653 11.8325 16.9461C13.0471 16.6269 14.1568 15.9951 15.0512 15.1136C15.9456 14.2321 16.5934 13.1317 16.9301 11.9219V11.9219Z" stroke="#718096" stroke-width="2" stroke-linecap="round" stroke-linejoin="round"/>
</svg>
