<svg width="19" height="28" viewBox="0 0 19 28" fill="none" xmlns="http://www.w3.org/2000/svg">
<path d="M8.99935 0.666656C5.79935 0.666656 3.16602 3.29999 3.16602 6.49999C3.16602 8.04999 3.79935 9.46666 4.83268 10.5167C2.28268 12.1833 0.666016 15.0333 0.666016 18.1667C0.666016 23.2167 4.78268 27.3333 9.83268 27.3333C12.766 27.3333 15.666 26.5667 18.166 25.1L16.4993 22.2167C14.466 23.3833 12.166 24 9.83268 24C6.59935 24 3.99935 21.4167 3.99935 18.1667C3.99639 16.8829 4.41818 15.6343 5.19898 14.6154C5.97978 13.5964 7.07572 12.8644 8.31602 12.5333L16.9993 10.2L16.1327 6.98332L8.71601 8.99999C7.46602 8.83332 6.49935 7.79999 6.49935 6.49999C6.49935 5.09999 7.59935 3.99999 8.99935 3.99999C9.43268 3.99999 9.83268 4.11666 10.2493 4.33332L11.916 1.44999C11.0327 0.933323 10.016 0.666656 8.99935 0.666656Z" fill="#718096"/>
</svg>
