<svg width="22" height="22" viewBox="0 0 22 22" fill="none" xmlns="http://www.w3.org/2000/svg">
<path d="M18.5625 6.1875H3.4375C3.0578 6.1875 2.75 6.4953 2.75 6.875V17.875C2.75 18.2547 3.0578 18.5625 3.4375 18.5625H18.5625C18.9422 18.5625 19.25 18.2547 19.25 17.875V6.875C19.25 6.4953 18.9422 6.1875 18.5625 6.1875Z" stroke="#718096" stroke-width="2" stroke-linecap="round" stroke-linejoin="round"/>
<path d="M14.4375 6.1875V4.8125C14.4375 4.44783 14.2926 4.09809 14.0348 3.84023C13.7769 3.58237 13.4272 3.4375 13.0625 3.4375H8.9375C8.57283 3.4375 8.22309 3.58237 7.96523 3.84023C7.70737 4.09809 7.5625 4.44783 7.5625 4.8125V6.1875" stroke="#718096" stroke-width="2" stroke-linecap="round" stroke-linejoin="round"/>
<path d="M19.25 10.8539C16.7426 12.304 13.8965 13.066 11 13.0625C8.10292 13.07 5.25583 12.3079 2.75 10.8539" stroke="#718096" stroke-width="2" stroke-linecap="round" stroke-linejoin="round"/>
<path d="M9.96875 10.3125H12.0312" stroke="#718096" stroke-width="2" stroke-linecap="round" stroke-linejoin="round"/>
</svg>
