<svg width="14" height="14" viewBox="0 0 14 14" fill="none" xmlns="http://www.w3.org/2000/svg">
<path d="M11.375 2.1875H2.625C2.38338 2.1875 2.1875 2.38338 2.1875 2.625V11.375C2.1875 11.6166 2.38338 11.8125 2.625 11.8125H11.375C11.6166 11.8125 11.8125 11.6166 11.8125 11.375V2.625C11.8125 2.38338 11.6166 2.1875 11.375 2.1875Z" stroke="#2D3748" stroke-linecap="round" stroke-linejoin="round"/>
<path d="M9.625 1.3125V3.0625" stroke="#2D3748" stroke-linecap="round" stroke-linejoin="round"/>
<path d="M4.375 1.3125V3.0625" stroke="#2D3748" stroke-linecap="round" stroke-linejoin="round"/>
<path d="M2.1875 4.8125H11.8125" stroke="#2D3748" stroke-linecap="round" stroke-linejoin="round"/>
<path d="M5.03125 7H6.5625L5.6875 8.09375C5.8315 8.0935 5.97334 8.1288 6.10043 8.19651C6.22752 8.26422 6.33593 8.36226 6.41606 8.48191C6.49618 8.60157 6.54553 8.73915 6.55973 8.88245C6.57393 9.02575 6.55255 9.17034 6.49748 9.30339C6.4424 9.43645 6.35534 9.55385 6.24401 9.6452C6.13269 9.73654 6.00054 9.79899 5.85929 9.82702C5.71804 9.85504 5.57206 9.84778 5.43429 9.80586C5.29652 9.76394 5.17123 9.68867 5.06953 9.58672" stroke="#2D3748" stroke-linecap="round" stroke-linejoin="round"/>
<path d="M7.875 7.65625L8.75 7V9.84375" stroke="#2D3748" stroke-linecap="round" stroke-linejoin="round"/>
</svg>
