<svg width="306" height="306" viewBox="0 0 306 306" fill="none" xmlns="http://www.w3.org/2000/svg">
<circle cx="158.898" cy="154.898" r="95.8982" fill="#FFF3F5"/>
<circle cx="68.8506" cy="90.1607" r="6.01071" fill="#FFF3F5"/>
<circle cx="224.309" cy="66.3911" r="11.2018" fill="#FFF3F5"/>
<circle cx="70.7628" cy="216.659" r="10.6554" fill="#FFF3F5"/>
<circle cx="261.466" cy="206.277" r="10.6554" fill="#FFF3F5"/>
<circle cx="240.701" cy="218.298" r="5.19107" fill="#FFF3F5"/>
<path d="M174.052 63.1327C173.735 63.0653 173.735 62.6132 174.052 62.5458L178.842 61.5273C178.957 61.5027 179.047 61.4127 179.072 61.2974L180.104 56.5413C180.172 56.2261 180.622 56.2261 180.69 56.5413L181.721 61.2974C181.746 61.4127 181.837 61.5027 181.952 61.5273L186.742 62.5458C187.059 62.6132 187.059 63.0653 186.742 63.1327L181.952 64.1513C181.837 64.1758 181.746 64.2658 181.721 64.3811L180.69 69.1372C180.622 69.4524 180.172 69.4524 180.104 69.1372L179.072 64.3811C179.047 64.2658 178.957 64.1758 178.842 64.1513L174.052 63.1327Z" fill="#F7848A"/>
<path d="M43.8357 169.186C43.958 168.609 44.7826 168.609 44.9049 169.186L46.7315 177.816C46.776 178.026 46.9397 178.191 47.1497 178.237L55.6901 180.097C56.2636 180.222 56.2636 181.04 55.6901 181.165L47.1497 183.025C46.9397 183.071 46.776 183.236 46.7315 183.446L44.9049 192.076C44.7826 192.653 43.958 192.653 43.8357 192.076L42.0091 183.446C41.9646 183.236 41.8009 183.071 41.5908 183.025L33.0504 181.165C32.4769 181.04 32.4769 180.222 33.0504 180.097L41.5908 178.237C41.8009 178.191 41.9646 178.026 42.0091 177.816L43.8357 169.186Z" fill="#F7848A"/>
<path d="M244.441 92.6863C244.563 92.1086 245.388 92.1086 245.51 92.6863L246.576 97.7205C246.62 97.9309 246.784 98.0955 246.994 98.1413L251.991 99.2298C252.564 99.3547 252.564 100.173 251.991 100.298L246.994 101.386C246.784 101.432 246.62 101.597 246.576 101.807L245.51 106.841C245.388 107.419 244.563 107.419 244.441 106.841L243.375 101.807C243.331 101.597 243.167 101.432 242.957 101.386L237.961 100.298C237.387 100.173 237.387 99.3547 237.961 99.2298L242.957 98.1413C243.167 98.0955 243.331 97.9309 243.375 97.7205L244.441 92.6863Z" fill="#F7848A"/>
<path d="M266.47 173.398L268.143 181.304L275.935 183.001L268.143 184.699L266.47 192.604L264.796 184.699L257.004 183.001L264.796 181.304L266.47 173.398Z" fill="white"/>
<g clip-path="url(#clip0_2619_21454)">
<path d="M99 155.333C99 133.022 99 121.863 105.934 114.934C112.863 108 124.022 108 146.333 108H170C192.312 108 203.471 108 210.399 114.934C217.333 121.863 217.333 133.022 217.333 155.333C217.333 177.645 217.333 188.804 210.399 195.732C203.471 202.667 192.312 202.667 170 202.667H146.333C124.022 202.667 112.863 202.667 105.934 195.732C99 188.804 99 177.645 99 155.333Z" stroke="#F7848A" stroke-width="10"/>
<path d="M146.333 179H122.667M170 179H161.125M99 143.5H217.333" stroke="#F7848A" stroke-width="10" stroke-linecap="round"/>
</g>
<defs>
<clipPath id="clip0_2619_21454">
<rect width="142" height="142" fill="white" transform="translate(80 84.0001)"/>
</clipPath>
</defs>
</svg>
