<svg width="40" height="40" viewBox="0 0 40 40" fill="none" xmlns="http://www.w3.org/2000/svg">
<path d="M33.75 17.5V10" stroke="#718096" stroke-width="2" stroke-linecap="round" stroke-linejoin="round"/>
<path d="M37.5 13.75H30" stroke="#718096" stroke-width="2" stroke-linecap="round" stroke-linejoin="round"/>
<path d="M26.25 3.75V8.75" stroke="#718096" stroke-width="2" stroke-linecap="round" stroke-linejoin="round"/>
<path d="M28.75 6.25H23.75" stroke="#718096" stroke-width="2" stroke-linecap="round" stroke-linejoin="round"/>
<path d="M33.8603 23.8438C31.4061 24.5319 28.813 24.5545 26.3472 23.9091C23.8815 23.2637 21.6319 21.9736 19.8296 20.1713C18.0273 18.369 16.7372 16.1195 16.0918 13.6537C15.4464 11.1879 15.469 8.5948 16.1572 6.14062C13.7376 6.81408 11.5367 8.10972 9.77365 9.89849C8.01062 11.6873 6.74703 13.9067 6.10872 16.3358C5.47041 18.7649 5.47967 21.3189 6.13557 23.7433C6.79147 26.1677 8.07112 28.3779 9.84706 30.1539C11.623 31.9298 13.8333 33.2095 16.2577 33.8654C18.6821 34.5213 21.236 34.5305 23.6651 33.8922C26.0942 33.2539 28.3137 31.9903 30.1024 30.2273C31.8912 28.4643 33.1868 26.2633 33.8603 23.8438V23.8438Z" stroke="#718096" stroke-width="2" stroke-linecap="round" stroke-linejoin="round"/>
</svg>
