<svg width="12" height="14" viewBox="0 0 12 14" fill="none" xmlns="http://www.w3.org/2000/svg">
<path fill-rule="evenodd" clip-rule="evenodd" d="M8.94059 0.512414L8.94125 1.01216C10.7777 1.15609 11.9908 2.40746 11.9928 4.3265L12 9.94369C12.0026 12.036 10.6882 13.3233 8.58121 13.3267L3.4346 13.3333C1.3408 13.336 0.00988434 12.018 0.00725147 9.9197L1.10606e-05 4.36848C-0.00262181 2.43678 1.16769 1.18874 3.00412 1.02016L3.00346 0.52041C3.0028 0.227223 3.22002 0.0066671 3.50963 0.0066671C3.79925 0.00600076 4.01646 0.225891 4.01712 0.519077L4.01778 0.98551L7.9276 0.98018L7.92694 0.513746C7.92628 0.22056 8.14349 0.000670099 8.43311 3.76557e-06C8.71614 -0.000662567 8.93994 0.219227 8.94059 0.512414ZM1.01432 4.57438L10.9798 4.56105V4.32784C10.9514 2.89522 10.2327 2.1436 8.94257 2.03165L8.94322 2.54473C8.94322 2.83125 8.72009 3.05847 8.43705 3.05847C8.14744 3.05914 7.92957 2.83258 7.92957 2.54606L7.92891 2.00633L4.01909 2.01166L4.01975 2.55073C4.01975 2.83791 3.8032 3.06447 3.51358 3.06447C3.22396 3.06513 3.00609 2.83925 3.00609 2.55206L3.00543 2.03898C1.72191 2.16758 1.01169 2.92187 1.01367 4.36715L1.01432 4.57438ZM8.15994 7.60286V7.61019C8.16653 7.9167 8.41665 8.14925 8.72009 8.14259C9.01629 8.13526 9.25259 7.88139 9.246 7.57488C9.23218 7.28169 8.99457 7.04248 8.69902 7.04314C8.39624 7.04981 8.15929 7.29635 8.15994 7.60286ZM8.70352 10.5944C8.40074 10.5877 8.15654 10.3351 8.15588 10.0286C8.1493 9.72212 8.39218 9.46825 8.69496 9.46092H8.70154C9.01091 9.46092 9.26169 9.71346 9.26169 10.0266C9.26235 10.3398 9.01222 10.5937 8.70352 10.5944ZM5.44808 7.61352C5.46125 7.92004 5.71203 8.15925 6.01481 8.14592C6.31101 8.13193 6.54731 7.87872 6.53414 7.57221C6.5269 7.27236 6.28336 7.03914 5.98716 7.03981C5.68438 7.05314 5.44743 7.30701 5.44808 7.61352ZM6.0174 10.5646C5.71462 10.5779 5.4645 10.3387 5.45067 10.0322C5.45067 9.72568 5.68697 9.47247 5.98975 9.45848C6.28595 9.45782 6.53015 9.69103 6.53673 9.99021C6.55056 10.2974 6.3136 10.5506 6.0174 10.5646ZM2.73622 7.63685C2.74939 7.94336 3.00017 8.18324 3.30295 8.16924C3.59915 8.15592 3.83545 7.90205 3.82163 7.59553C3.81504 7.29568 3.5715 7.06247 3.27465 7.06313C2.97187 7.07646 2.73557 7.33033 2.73622 7.63685ZM3.30558 10.568C3.0028 10.582 2.75268 10.3422 2.73886 10.0356C2.7382 9.72913 2.97516 9.47526 3.27794 9.46193C3.57414 9.46126 3.81833 9.69448 3.82492 9.99433C3.83874 10.3008 3.60244 10.5547 3.30558 10.568Z" fill="#F24646"/>
</svg>
