<svg width="32" height="32" viewBox="0 0 32 32" fill="none" xmlns="http://www.w3.org/2000/svg">
<rect width="32" height="32" rx="16" fill="white"/>
<path d="M16.4452 22.5544L22.7733 16.2262C24.328 14.6637 24.5546 12.1091 23.0858 10.4762C22.7175 10.0648 22.2691 9.73271 21.7681 9.50037C21.2671 9.26803 20.7239 9.14028 20.1719 9.12492C19.6198 9.10957 19.0705 9.20693 18.5573 9.41106C18.0442 9.6152 17.578 9.92182 17.1874 10.3122L15.9999 11.5075L14.9764 10.4762C13.4139 8.92156 10.8592 8.69499 9.22643 10.1637C8.81495 10.5321 8.4829 10.9805 8.25055 11.4815C8.01821 11.9825 7.89046 12.5256 7.87511 13.0777C7.85975 13.6297 7.95711 14.1791 8.16125 14.6922C8.36538 15.2054 8.672 15.6715 9.06236 16.0622L15.5546 22.5544C15.673 22.6717 15.8331 22.7376 15.9999 22.7376C16.1666 22.7376 16.3267 22.6717 16.4452 22.5544V22.5544Z" stroke="black" stroke-opacity="0.48" stroke-width="1.5" stroke-linecap="round" stroke-linejoin="round"/>
</svg>
