<svg width="20" height="20" viewBox="0 0 20 20" fill="none" xmlns="http://www.w3.org/2000/svg">
<path d="M17.3973 0.00970459H16.355C15.693 0.00970459 15.0573 0.273337 14.5882 0.740938L4.56041 10.7645C4.28976 11.0351 4.28976 11.4736 4.56041 11.7441L8.25645 15.4391C8.5271 15.7097 8.96568 15.7097 9.23633 15.4391L19.2627 5.41556C19.7318 4.94657 19.9941 4.31247 19.9941 3.64922V2.60718C19.9941 1.17246 18.8311 0.00970459 17.3973 0.00970459Z" fill="#6C7C93"/>
<path d="M3.59664 13.5882C3.37735 13.3689 3.02204 13.3689 2.80275 13.5882L1.09837 15.2921C0.879082 15.5113 0.879082 15.8665 1.09837 16.0857L1.81871 16.8059L0.29199 18.3322C-0.0869134 18.711 -0.0869134 19.327 0.29199 19.7058C0.482136 19.8959 0.730574 19.9903 0.979013 19.9903C1.22745 19.9903 1.47589 19.8959 1.66604 19.7058L3.19275 18.1795L3.91309 18.8997C4.13238 19.1189 4.48769 19.1189 4.70698 18.8997L6.41135 17.1958C6.63064 16.9765 6.63064 16.6213 6.41135 16.4021L3.59664 13.5882Z" fill="#6C7C93"/>
</svg>
