<svg width="24" height="24" viewBox="0 0 24 24" fill="none" xmlns="http://www.w3.org/2000/svg">
<circle cx="12" cy="12" r="12" fill="#F24646"/>
<path d="M9.79375 17.5H7C6.86739 17.5 6.74022 17.4473 6.64645 17.3536C6.55268 17.2598 6.5 17.1326 6.5 17V14.2063C6.49978 14.1413 6.51236 14.077 6.53702 14.0169C6.56169 13.9569 6.59796 13.9023 6.64375 13.8563L14.1438 6.35626C14.1903 6.30901 14.2457 6.2715 14.3069 6.24589C14.3681 6.22028 14.4337 6.20709 14.5 6.20709C14.5663 6.20709 14.632 6.22028 14.6931 6.24589C14.7543 6.2715 14.8097 6.30901 14.8563 6.35626L17.6438 9.14376C17.691 9.19028 17.7285 9.24574 17.7541 9.3069C17.7797 9.36806 17.7929 9.4337 17.7929 9.50001C17.7929 9.56631 17.7797 9.63195 17.7541 9.69311C17.7285 9.75428 17.691 9.80973 17.6438 9.85626L10.1438 17.3563C10.0977 17.4021 10.0431 17.4383 9.98307 17.463C9.92301 17.4877 9.85868 17.5002 9.79375 17.5V17.5Z" stroke="white" stroke-linecap="round" stroke-linejoin="round"/>
<path d="M12.5 8L16 11.5" stroke="white" stroke-linecap="round" stroke-linejoin="round"/>
</svg>
