<svg width="32" height="32" viewBox="0 0 32 32" fill="none" xmlns="http://www.w3.org/2000/svg">
<path d="M28.5 1H3.5C2.11929 1 1 2.11929 1 3.5V28.5C1 29.8807 2.11929 31 3.5 31H28.5C29.8807 31 31 29.8807 31 28.5V3.5C31 2.11929 29.8807 1 28.5 1Z" stroke="#718096" stroke-width="2" stroke-linecap="round" stroke-linejoin="round"/>
<path d="M13.5007 10.1667H6.83398V21.8333H13.084M6.83398 16H13.084M17.6673 11.8333V21.8333V16.4167C17.6673 15.4221 18.0624 14.4683 18.7657 13.765C19.4689 13.0617 20.4228 12.6667 21.4173 12.6667C22.4119 12.6667 23.3657 13.0617 24.069 13.765C24.7722 14.4683 25.1673 15.4221 25.1673 16.4167V21.8333" stroke="#718096" stroke-width="2" stroke-linecap="round" stroke-linejoin="round"/>
</svg>
