<svg width="25" height="24" viewBox="0 0 25 24" fill="none" xmlns="http://www.w3.org/2000/svg">
<path d="M24.5003 12.2666C24.5003 11.2799 24.4186 10.5599 24.2418 9.81329H12.7451V14.2666H19.4934C19.3574 15.3733 18.6227 17.0399 16.99 18.1599L16.9671 18.309L20.6022 21.0686L20.854 21.0933C23.1669 18.9999 24.5003 15.9199 24.5003 12.2666Z" fill="#4285F4"/>
<path d="M12.7446 24C16.0507 24 18.8262 22.9333 20.8535 21.0933L16.9895 18.1599C15.9555 18.8666 14.5677 19.3599 12.7446 19.3599C9.50648 19.3599 6.75817 17.2667 5.77848 14.3733L5.63488 14.3853L1.85509 17.2519L1.80566 17.3866C3.81927 21.3066 7.95538 24 12.7446 24Z" fill="#34A853"/>
<path d="M5.77891 14.3734C5.52041 13.6267 5.37081 12.8266 5.37081 12C5.37081 11.1733 5.52041 10.3733 5.76531 9.62667L5.75847 9.46765L1.93132 6.55493L1.8061 6.6133C0.976201 8.23999 0.5 10.0667 0.5 12C0.5 13.9333 0.976201 15.7599 1.8061 17.3866L5.77891 14.3734Z" fill="#FBBC05"/>
<path d="M12.7446 4.63996C15.0439 4.63996 16.5949 5.61329 17.4793 6.42668L20.9351 3.12C18.8127 1.18667 16.0507 0 12.7446 0C7.95538 0 3.81927 2.69331 1.80566 6.61327L5.76487 9.62665C6.75817 6.73332 9.50648 4.63996 12.7446 4.63996Z" fill="#EB4335"/>
</svg>
