<svg width="25" height="24" viewBox="0 0 25 24" fill="none" xmlns="http://www.w3.org/2000/svg">
<path d="M23.8555 10.4388C23.8547 10.4383 23.8542 10.4376 23.8536 10.437L14.0626 0.647278C13.6452 0.229797 13.0903 0 12.5001 0C11.9099 0 11.3551 0.229797 10.9375 0.647278L1.15158 10.4321C1.14828 10.4354 1.1448 10.4388 1.14169 10.4421C0.284671 11.304 0.286136 12.7024 1.1459 13.5621C1.5387 13.955 2.05731 14.1824 2.61199 14.2064C2.6347 14.2086 2.65741 14.2097 2.6803 14.2097H3.07035V21.4142C3.07035 22.84 4.23063 24 5.65661 24H9.4872C9.8756 24 10.1904 23.6851 10.1904 23.2969V17.6484C10.1904 16.9979 10.7198 16.4687 11.3704 16.4687H13.6298C14.2805 16.4687 14.8097 16.9979 14.8097 17.6484V23.2969C14.8097 23.6851 15.1245 24 15.5129 24H19.3435C20.7696 24 21.9297 22.84 21.9297 21.4142V14.2097H22.2916C22.8816 14.2097 23.4365 13.9799 23.8542 13.5623C24.7149 12.7013 24.7152 11.3004 23.8555 10.4388ZM22.8596 12.568C22.7078 12.7198 22.506 12.8035 22.2916 12.8035H21.2265C20.8381 12.8035 20.5233 13.1182 20.5233 13.5066V21.4142C20.5233 22.0646 19.9941 22.5938 19.3435 22.5938H16.2161V17.6484C16.2161 16.2226 15.056 15.0624 13.6298 15.0624H11.3704C9.94428 15.0624 8.784 16.2226 8.784 17.6484V22.5938H5.65661C5.00616 22.5938 4.47674 22.0646 4.47674 21.4142V13.5066C4.47674 13.1182 4.16195 12.8035 3.77355 12.8035H2.72681C2.71582 12.8027 2.70502 12.8022 2.69385 12.802C2.48436 12.7983 2.28786 12.7152 2.14063 12.5678C1.82749 12.2547 1.82749 11.7451 2.14063 11.4318C2.14082 11.4318 2.14082 11.4316 2.141 11.4315L2.14155 11.4309L11.9323 1.64154C12.0839 1.48975 12.2855 1.40625 12.5001 1.40625C12.7146 1.40625 12.9162 1.48975 13.068 1.64154L22.8565 11.4289C22.858 11.4304 22.8596 11.4318 22.8611 11.4333C23.1726 11.7469 23.1721 12.2554 22.8596 12.568Z" fill="#4A5568"/>
</svg>
