<svg width="20" height="20" viewBox="0 0 20 20" fill="none" xmlns="http://www.w3.org/2000/svg">
<g clip-path="url(#clip0_284_3359)">
<path d="M8.70445 11.3546L6.84602 9.49758C7.16107 8.97433 7.38869 8.44553 7.55524 7.94865C7.93137 6.81888 8.02575 5.73491 8.0313 4.966H9.02228C9.55941 4.966 9.99522 4.53019 9.99522 3.99306C9.99522 3.45594 9.55941 3.02013 9.02228 3.02013H5.97023V0.972936C5.97023 0.435809 5.53443 0 4.9973 0C4.46017 0 4.02436 0.435809 4.02436 0.972936V3.01874H0.972317C0.43519 3.02013 -0.000618653 3.45455 -0.000618653 3.99167C-0.000618653 4.5288 0.43519 4.96461 0.972317 4.96461H6.08543C6.07988 5.57391 6.00632 6.44414 5.71069 7.33241C5.62464 7.58918 5.5261 7.83207 5.41368 8.06246L3.67183 6.32339C3.29154 5.9431 2.67669 5.9431 2.2964 6.32339C1.91611 6.70368 1.91611 7.31853 2.2964 7.69882L4.23255 9.63498C3.38175 10.3942 2.24643 10.8772 0.833524 11.0798C0.301949 11.1561 -0.0672391 11.6489 0.0077089 12.1804C0.0771051 12.6662 0.493483 13.016 0.969541 13.016C1.01534 13.016 1.06114 13.0132 1.10833 13.0063C3.16107 12.7134 4.60174 11.9514 5.61215 11.0174L7.32624 12.7314C7.51638 12.9216 7.76482 13.016 8.01465 13.016C8.26447 13.016 8.51291 12.9216 8.70306 12.7314C9.08335 12.3498 9.08335 11.7349 8.70445 11.3546Z" fill="#718096"/>
<path d="M19.8964 18.5982L14.8943 8.59403C14.7291 8.26509 14.3932 8.0569 14.0241 8.0569C13.6563 8.0569 13.319 8.26509 13.1538 8.59403L8.15174 18.5982C7.91163 19.0784 8.10594 19.6627 8.58616 19.9028C9.06639 20.143 9.6507 19.9487 9.89081 19.4684L11.498 16.2526C11.5064 16.2526 11.5133 16.254 11.5216 16.254H16.5237C16.532 16.254 16.539 16.2526 16.5473 16.2526L18.1545 19.4684C18.3252 19.8099 18.6681 20.0069 19.0247 20.0069C19.1705 20.0069 19.319 19.9736 19.4592 19.9042C19.9422 19.6627 20.1365 19.0784 19.8964 18.5982ZM12.471 14.3081L14.0241 11.2033L15.5771 14.3081H12.471Z" fill="#718096"/>
</g>
<defs>
<clipPath id="clip0_284_3359">
<rect width="20" height="20.0056" fill="white"/>
</clipPath>
</defs>
</svg>
