<svg width="25" height="24" viewBox="0 0 25 24" fill="none" xmlns="http://www.w3.org/2000/svg">
<g clip-path="url(#clip0_1440_475)">
<path d="M22.0726 10.2265C22.5954 10.5751 22.8443 11.2189 22.6919 11.8285C22.5977 12.2052 22.8267 12.5869 23.2034 12.681C23.5802 12.7752 23.9619 12.5462 24.056 12.1695C24.3522 10.9848 23.8685 9.73385 22.8525 9.05647C21.3646 8.0645 19.3668 8.26239 18.1024 9.52687L17.4718 10.1575C16.5714 9.07199 15.4891 7.9791 14.3414 7.02711L14.972 6.39651C16.2365 5.13202 16.4343 3.13425 15.4423 1.64628C14.765 0.630357 13.5141 0.146649 12.3294 0.442826C11.9527 0.53699 11.7236 0.918706 11.8178 1.29541C11.912 1.67211 12.2935 1.90103 12.6704 1.80696C13.2799 1.65449 13.9238 1.90342 14.2723 2.42626C14.8938 3.35843 14.7699 4.60998 13.9777 5.40219L13.2205 6.15939C12.5594 5.6843 11.908 5.28154 11.2888 4.96868C9.09138 3.85854 8.01724 4.23829 7.50316 4.75237C7.32894 4.92659 7.20286 5.13029 7.12008 5.3586L0.710724 20.3636C0.575408 20.6805 0.500977 21.0267 0.500977 21.3881C0.500977 23.2682 2.42493 24.5198 4.13544 23.7881L19.1358 17.3807C19.366 17.2979 19.5711 17.1711 19.7465 16.9957C20.2606 16.4816 20.6404 15.4076 19.5302 13.2101C19.2173 12.5908 18.8146 11.9394 18.3395 11.2784L19.0967 10.5212C19.8889 9.72898 21.1404 9.60501 22.0726 10.2265ZM11.502 19.1125L6.59335 10.1715L7.48675 8.07992C8.91786 11.375 13.1191 15.579 16.4188 17.0122L11.502 19.1125ZM6.97089 21.048L4.21184 15.7468L5.89141 11.8148L10.2026 19.6675C9.63785 19.9088 10.2334 19.6544 6.97089 21.048ZM3.58278 22.4952C2.6928 22.8759 1.7386 22.0998 1.9311 21.1481C1.96579 20.9798 1.87097 21.227 3.49734 17.4196L5.67407 21.6019L3.58278 22.4952ZM18.2751 13.8441C18.9239 15.1282 18.9158 15.8378 18.7522 16.0014C18.7206 16.033 18.6893 16.0424 18.6368 16.0648C18.3537 16.1543 17.6747 16.0784 16.5828 15.5324C13.7758 14.129 10.3717 10.7265 8.96642 7.91601C8.42042 6.82402 8.34458 6.14504 8.43411 5.86199C8.45618 5.81053 8.46574 5.77842 8.49748 5.74669C8.55311 5.69105 8.6717 5.65346 8.85454 5.65346C9.20973 5.65346 9.8071 5.79553 10.6548 6.22379C11.1536 6.47576 11.6776 6.79406 12.2126 7.16744L11.6278 7.75215C11.3533 8.02672 11.3533 8.47186 11.6278 8.74642C11.9024 9.02099 12.3475 9.02104 12.6221 8.74642L13.343 8.0255C14.4574 8.93864 15.5588 10.0396 16.4734 11.1559L15.7525 11.8768C15.4779 12.1514 15.4779 12.5965 15.7525 12.8711C16.027 13.1456 16.4722 13.1457 16.7468 12.8711L17.3315 12.2863C17.7048 12.8213 18.0231 13.3454 18.2751 13.8441Z" fill="#4A5568"/>
<path d="M18.9966 6.49664L22.5588 2.93445C22.8333 2.65988 22.8333 2.21475 22.5588 1.94018C22.2843 1.66561 21.8391 1.66561 21.5645 1.94018L18.0023 5.50237C17.7277 5.77694 17.7277 6.22207 18.0023 6.49664C18.2768 6.77121 18.7221 6.77126 18.9966 6.49664Z" fill="#4A5568"/>
<path d="M4.25091 2.5779H4.67275V2.99974C4.67275 3.38801 4.98754 3.7028 5.37582 3.7028C5.76409 3.7028 6.07888 3.38801 6.07888 2.99974V2.5779H6.50072C6.889 2.5779 7.20378 2.26311 7.20378 1.87484C7.20378 1.48656 6.889 1.17177 6.50072 1.17177H6.07888V0.703063C6.07888 0.314785 5.76409 0 5.37582 0C4.98754 0 4.67275 0.314785 4.67275 0.703063V1.17177H4.25091C3.86264 1.17177 3.54785 1.48656 3.54785 1.87484C3.54785 2.26311 3.86259 2.5779 4.25091 2.5779Z" fill="#4A5568"/>
<path d="M23.7956 17.6703H23.3269V17.2485C23.3269 16.8602 23.0121 16.5454 22.6239 16.5454C22.2356 16.5454 21.9208 16.8602 21.9208 17.2485V17.6703H21.499C21.1107 17.6703 20.7959 17.9851 20.7959 18.3734C20.7959 18.7617 21.1107 19.0764 21.499 19.0764H21.9208V19.4983C21.9208 19.8866 22.2356 20.2013 22.6239 20.2013C23.0121 20.2013 23.3269 19.8866 23.3269 19.4983V19.0764H23.7956C24.1839 19.0764 24.4987 18.7617 24.4987 18.3734C24.4987 17.9851 24.1839 17.6703 23.7956 17.6703Z" fill="#4A5568"/>
<path d="M18.8752 1.40613C19.2635 1.40613 19.5782 1.09134 19.5782 0.703063C19.5782 0.314785 19.2635 0 18.8752 0C18.4824 0 18.1719 0.318581 18.1719 0.703063C18.1719 1.09134 18.4868 1.40613 18.8752 1.40613Z" fill="#4A5568"/>
<path d="M22.2969 6.37445C22.2969 6.76273 22.6119 7.07751 23.0002 7.07751C23.3885 7.07751 23.7032 6.76273 23.7032 6.37445C23.7032 5.98941 23.3918 5.67139 22.9997 5.67139C22.6114 5.67139 22.2969 5.98617 22.2969 6.37445Z" fill="#4A5568"/>
</g>
<defs>
<clipPath id="clip0_1440_475">
<rect width="24" height="24" fill="white" transform="translate(0.5)"/>
</clipPath>
</defs>
</svg>
