<svg width="20" height="20" viewBox="0 0 20 20" fill="none" xmlns="http://www.w3.org/2000/svg">
<path d="M1.66602 9.99999C1.66602 6.85749 1.66602 5.28583 2.64268 4.30999C3.61852 3.33333 5.19018 3.33333 8.33268 3.33333H11.666C14.8085 3.33333 16.3802 3.33333 17.356 4.30999C18.3327 5.28583 18.3327 6.85749 18.3327 9.99999C18.3327 13.1425 18.3327 14.7142 17.356 15.69C16.3802 16.6667 14.8085 16.6667 11.666 16.6667H8.33268C5.19018 16.6667 3.61852 16.6667 2.64268 15.69C1.66602 14.7142 1.66602 13.1425 1.66602 9.99999Z" stroke="#718096" stroke-width="1.5"/>
<path d="M8.33268 13.3333H4.99935M11.666 13.3333H10.416M1.66602 8.33333H18.3327" stroke="#718096" stroke-width="1.5" stroke-linecap="round"/>
</svg>
