<svg width="14" height="14" viewBox="0 0 14 14" fill="none" xmlns="http://www.w3.org/2000/svg">
<path fill-rule="evenodd" clip-rule="evenodd" d="M2 4.19922C0.895431 4.19922 0 5.09465 0 6.19922V12.0019C0 13.1065 0.89543 14.0019 2 14.0019H12C13.1046 14.0019 14 13.1065 14 12.0019V6.19922C14 5.09465 13.1046 4.19922 12 4.19922H2ZM7 11.2012C8.1598 11.2012 9.1 10.2607 9.1 9.10058C9.1 7.94046 8.1598 7 7 7C5.8402 7 4.9 7.94046 4.9 9.10058C4.9 10.2607 5.8402 11.2012 7 11.2012Z" fill="#F24646"/>
<path d="M2.79844 -0.00195312C1.67844 -0.00195312 1.39844 0.931639 1.39844 1.39844V1.89863C1.39844 2.00909 1.48798 2.09863 1.59844 2.09863H12.3984C12.5089 2.09863 12.5984 2.00909 12.5984 1.89863V1.39844C12.5984 0.278125 11.6651 -0.00195312 11.1984 -0.00195312H2.79844Z" fill="#F24646"/>
</svg>
