<svg width="20" height="20" viewBox="0 0 20 20" fill="none" xmlns="http://www.w3.org/2000/svg">
<path d="M17.9133 4.63667C17.8742 3.94599 17.5722 3.29649 17.0694 2.82139C16.5665 2.34629 15.9009 2.08162 15.2092 2.08167H5.20917C4.85343 2.08156 4.50116 2.15153 4.17248 2.28759C3.84379 2.42364 3.54513 2.62312 3.29355 2.87462C3.04197 3.12613 2.8424 3.42473 2.70624 3.75337C2.57008 4.08202 2.5 4.43427 2.5 4.79V14.7933L2.50417 14.9467C2.54333 15.6373 2.84531 16.2868 3.34814 16.7619C3.85098 17.237 4.51655 17.5017 5.20833 17.5017H11.1383L9.92917 16.25H9.58333L5.20833 16.2508C4.84473 16.2509 4.4942 16.1152 4.22549 15.8702C3.95679 15.6252 3.78929 15.2887 3.75583 14.9267L3.75 14.7933V7.91583L9.58333 7.915V10.1442C9.9454 9.81034 10.3703 9.55198 10.8333 9.38416V3.33083L15.2092 3.33167C15.5729 3.3316 15.9235 3.46746 16.1923 3.7126C16.461 3.95774 16.6284 4.29445 16.6617 4.65667L16.6675 4.79V9.19C17.1032 9.23921 17.5266 9.36622 17.9175 9.565V4.79L17.9133 4.63667ZM5.20917 3.33167L9.58333 3.33083V6.665L3.75 6.66583V4.79167C3.74982 4.4254 3.88747 4.07247 4.13559 3.80305C4.38371 3.53362 4.72412 3.36743 5.08917 3.3375L5.20917 3.3325V3.33167ZM18.3142 10.8817C19.4508 12.0592 19.4508 13.9675 18.3142 15.1442L14.6125 18.9758C14.5549 19.0361 14.4857 19.084 14.4091 19.1168C14.3325 19.1496 14.25 19.1665 14.1667 19.1665C14.0833 19.1665 14.0009 19.1496 13.9242 19.1168C13.8476 19.084 13.7784 19.0361 13.7208 18.9758L10.0192 15.1442C9.85129 14.9704 9.70496 14.7771 9.58333 14.5683C9.31029 14.0956 9.16654 13.5593 9.16654 13.0133C9.16654 12.4674 9.31029 11.9311 9.58333 11.4583C9.70496 11.2496 9.85129 11.0562 10.0192 10.8825C10.2845 10.6034 10.6037 10.3812 10.9576 10.2294C11.3114 10.0775 11.6925 9.99925 12.0775 9.99925C12.4625 9.99925 12.8436 10.0775 13.1974 10.2294C13.5513 10.3812 13.8705 10.6034 14.1358 10.8825L14.1667 10.9142L14.1967 10.8825C14.5104 10.5535 14.8983 10.3044 15.3281 10.1561C15.7578 10.0078 16.2168 9.96455 16.6667 10.03C17.1184 10.0965 17.5474 10.2709 17.9175 10.5383C18.0567 10.6392 18.19 10.7533 18.3142 10.8825V10.8817Z" fill="#718096"/>
</svg>
