<svg width="20" height="20" viewBox="0 0 20 20" fill="none" xmlns="http://www.w3.org/2000/svg">
<path d="M10.3444 14.8984L14.2819 17.3984C14.7897 17.7187 15.4147 17.2422 15.2662 16.6562L14.1256 12.1719C14.0948 12.0476 14.0997 11.9171 14.1398 11.7954C14.1798 11.6738 14.2535 11.566 14.3522 11.4844L17.8834 8.53905C18.3444 8.15624 18.11 7.3828 17.5084 7.34374L12.899 7.04686C12.7733 7.03955 12.6524 6.99575 12.5511 6.92083C12.4498 6.84591 12.3725 6.74311 12.3287 6.62499L10.61 2.29686C10.5645 2.17179 10.4816 2.06374 10.3726 1.98739C10.2636 1.91104 10.1337 1.87009 10.0006 1.87009C9.86751 1.87009 9.73764 1.91104 9.62863 1.98739C9.51961 2.06374 9.43673 2.17179 9.39123 2.29686L7.67248 6.62499C7.62868 6.74311 7.55141 6.84591 7.45013 6.92083C7.34885 6.99575 7.22794 7.03955 7.10217 7.04686L2.49279 7.34374C1.89123 7.3828 1.65686 8.15624 2.11779 8.53905L5.64904 11.4844C5.74774 11.566 5.82138 11.6738 5.86146 11.7954C5.90155 11.9171 5.90645 12.0476 5.87561 12.1719L4.82092 16.3281C4.64123 17.0312 5.39123 17.6016 5.99279 17.2187L9.65686 14.8984C9.7596 14.8331 9.87885 14.7984 10.0006 14.7984C10.1224 14.7984 10.2416 14.8331 10.3444 14.8984V14.8984Z" stroke="#718096" stroke-width="2" stroke-linecap="round" stroke-linejoin="round"/>
</svg>
