<svg width="20" height="20" viewBox="0 0 20 20" fill="none" xmlns="http://www.w3.org/2000/svg">
<path d="M12.3977 12.7734L10.5852 17.7578C10.5408 17.8774 10.4609 17.9806 10.3562 18.0534C10.2514 18.1263 10.1269 18.1653 9.99931 18.1653C9.87172 18.1653 9.74719 18.1263 9.64245 18.0534C9.53771 17.9806 9.45777 17.8774 9.41337 17.7578L7.60087 12.7734C7.56921 12.6875 7.51929 12.6095 7.45455 12.5448C7.3898 12.48 7.31178 12.4301 7.22587 12.3984L2.24149 10.5859C2.12188 10.5415 2.01872 10.4616 1.94588 10.3568C1.87303 10.2521 1.83398 10.1276 1.83398 9.99999C1.83398 9.87241 1.87303 9.74788 1.94588 9.64314C2.01872 9.53839 2.12188 9.45845 2.24149 9.41405L7.22587 7.60156C7.31178 7.5699 7.3898 7.51998 7.45455 7.45523C7.51929 7.39049 7.56921 7.31247 7.60087 7.22655L9.41337 2.24218C9.45777 2.12257 9.53771 2.01941 9.64245 1.94656C9.74719 1.87372 9.87172 1.83467 9.99931 1.83467C10.1269 1.83467 10.2514 1.87372 10.3562 1.94656C10.4609 2.01941 10.5408 2.12257 10.5852 2.24218L12.3977 7.22655C12.4294 7.31247 12.4793 7.39049 12.5441 7.45523C12.6088 7.51998 12.6868 7.5699 12.7727 7.60156L17.7571 9.41405C17.8767 9.45845 17.9799 9.53839 18.0527 9.64314C18.1256 9.74788 18.1646 9.87241 18.1646 9.99999C18.1646 10.1276 18.1256 10.2521 18.0527 10.3568C17.9799 10.4616 17.8767 10.5415 17.7571 10.5859L12.7727 12.3984C12.6868 12.4301 12.6088 12.48 12.5441 12.5448C12.4793 12.6095 12.4294 12.6875 12.3977 12.7734V12.7734Z" stroke="#718096" stroke-width="2" stroke-linecap="round" stroke-linejoin="round"/>
</svg>
