<svg width="25" height="24" viewBox="0 0 25 24" fill="none" xmlns="http://www.w3.org/2000/svg">
<path d="M22.24 17.28L18.4 13.73C18.94 12.6 19.25 11.33 19.25 10C19.25 5.18 15.33 1.25 10.5 1.25C5.67 1.25 1.75 5.18 1.75 10C1.75 14.82 5.67 18.75 10.5 18.75C11.84 18.75 13.1 18.44 14.23 17.9L17.78 21.74C18.37 22.37 19.17 22.73 20.03 22.75H20.1C20.94 22.75 21.73 22.43 22.33 21.83C22.92 21.24 23.25 20.44 23.25 19.6C23.25 18.76 22.89 17.89 22.24 17.28ZM3.25 10C3.25 6 6.5 2.75 10.5 2.75C14.5 2.75 17.75 6 17.75 10C17.75 14 14.5 17.25 10.5 17.25C6.5 17.25 3.25 14 3.25 10ZM21.27 20.77C20.94 21.09 20.51 21.25 20.06 21.25C19.61 21.25 19.18 21.05 18.88 20.72L15.56 17.13C16.36 16.56 17.06 15.86 17.63 15.06L21.22 18.38C21.56 18.7 21.75 19.14 21.75 19.6C21.75 20.06 21.58 20.46 21.27 20.77ZM15.25 10C15.25 10.41 14.91 10.75 14.5 10.75C14.09 10.75 13.75 10.41 13.75 10C13.75 8.21 12.29 6.75 10.5 6.75C10.09 6.75 9.75 6.41 9.75 6C9.75 5.59 10.09 5.25 10.5 5.25C13.12 5.25 15.25 7.38 15.25 10Z" fill="#4A5568"/>
</svg>
