<svg width="40" height="40" viewBox="0 0 40 40" fill="none" xmlns="http://www.w3.org/2000/svg">
<path d="M20 27.5C24.1421 27.5 27.5 24.1421 27.5 20C27.5 15.8579 24.1421 12.5 20 12.5C15.8579 12.5 12.5 15.8579 12.5 20C12.5 24.1421 15.8579 27.5 20 27.5Z" stroke="#718096" stroke-width="2" stroke-linecap="round" stroke-linejoin="round"/>
<path d="M28.7031 10.1719C29.099 10.5365 29.474 10.9115 29.8281 11.2969L34.0938 11.9063C34.7888 13.1133 35.3245 14.4053 35.6875 15.75L33.0938 19.2031C33.0938 19.2031 33.1406 20.2656 33.0938 20.7969L35.6875 24.25C35.3262 25.5953 34.7904 26.8875 34.0938 28.0938L29.8281 28.7031C29.8281 28.7031 29.0938 29.4688 28.7031 29.8281L28.0938 34.0938C26.8867 34.7888 25.5947 35.3245 24.25 35.6875L20.7969 33.0938C20.2667 33.1406 19.7333 33.1406 19.2031 33.0938L15.75 35.6875C14.4047 35.3262 13.1125 34.7904 11.9063 34.0938L11.2969 29.8281C10.9115 29.4635 10.5365 29.0885 10.1719 28.7031L5.90625 28.0938C5.21122 26.8867 4.67551 25.5947 4.3125 24.25L6.90625 20.7969C6.90625 20.7969 6.85938 19.7344 6.90625 19.2031L4.3125 15.75C4.67383 14.4047 5.20963 13.1125 5.90625 11.9063L10.1719 11.2969C10.5365 10.9115 10.9115 10.5365 11.2969 10.1719L11.9063 5.90625C13.1133 5.21122 14.4053 4.67551 15.75 4.3125L19.2031 6.90625C19.7333 6.85937 20.2667 6.85937 20.7969 6.90625L24.25 4.3125C25.5953 4.67383 26.8875 5.20963 28.0938 5.90625L28.7031 10.1719Z" stroke="#718096" stroke-width="2" stroke-linecap="round" stroke-linejoin="round"/>
</svg>
