<svg width="2966" height="2731" viewBox="0 0 2966 2731" fill="none" xmlns="http://www.w3.org/2000/svg">
<g clip-path="url(#clip0_4586_3901)">
<path d="M824.667 5.46683C600.534 16.0002 391.067 112 236.267 275.067C101.867 416.667 20.4003 596.533 2.00025 791.867C-1.06641 825.733 -0.799746 921.733 2.66692 955.333C21.6003 1143.33 96.9336 1313.6 222.134 1452C231.2 1461.87 517.467 1748.93 858.534 2090L1478.67 2710L2105.07 2083.33C2761.47 1426.8 2745.73 1442.67 2782.93 1393.73C2956.53 1165.47 3004.93 862 2911.33 589.333C2876 486.4 2821.33 390.933 2749.87 307.333C2727.87 281.6 2680.93 234.667 2655.33 212.8C2451.87 39.2002 2183.6 -30.7998 1921.33 21.3335C1764.13 52.5335 1620.8 126 1501.07 236.8C1488.8 248.133 1478.4 257.333 1477.87 257.333C1477.33 257.333 1470.93 251.467 1463.47 244.267C1363.07 146.667 1230.67 71.7335 1092.67 34.8002C1028.13 17.4668 970.8 8.66683 901.334 5.33349C869.734 3.86683 858.267 3.86683 824.667 5.46683Z" fill="#1F1935"/>
</g>
<defs>
<clipPath id="clip0_4586_3901">
<rect width="2965.33" height="2730.67" fill="white"/>
</clipPath>
</defs>
</svg>
