<svg width="20" height="20" viewBox="0 0 20 20" fill="none" xmlns="http://www.w3.org/2000/svg">
<path fill-rule="evenodd" clip-rule="evenodd" d="M10 4.5C5.90909 4.5 2.41545 6.78067 1 10C2.41545 13.2193 5.90909 15.5 10 15.5C14.0909 15.5 17.5846 13.2193 19 10C17.5846 6.78067 14.0909 4.5 10 4.5ZM10 13.6667C7.74182 13.6667 5.90909 12.024 5.90909 10C5.90909 7.976 7.74182 6.33333 10 6.33333C12.2582 6.33333 14.0909 7.976 14.0909 10C14.0909 12.024 12.2582 13.6667 10 13.6667ZM10 7.8C8.64182 7.8 7.54545 8.78267 7.54545 10C7.54545 11.2173 8.64181 12.2 10 12.2C11.3582 12.2 12.4545 11.2173 12.4545 10C12.4545 8.78267 11.3582 7.8 10 7.8Z" fill="#718096"/>
</svg>
