<svg width="20" height="20" viewBox="0 0 20 20" fill="none" xmlns="http://www.w3.org/2000/svg">
<path d="M10 16.8696C10 16.8696 2.1875 12.4946 2.1875 7.18213C2.1875 6.24298 2.51289 5.33283 3.1083 4.60655C3.70371 3.88026 4.53236 3.3827 5.45328 3.19852C6.37419 3.01434 7.33047 3.15491 8.15943 3.59632C8.98838 4.03773 9.63879 4.75272 10 5.61963V5.61963C10.3612 4.75272 11.0116 4.03773 11.8406 3.59632C12.6695 3.15491 13.6258 3.01434 14.5467 3.19852C15.4676 3.3827 16.2963 3.88026 16.8917 4.60655C17.4871 5.33283 17.8125 6.24298 17.8125 7.18213C17.8125 12.4946 10 16.8696 10 16.8696Z" stroke="#718096" stroke-width="2" stroke-linecap="round" stroke-linejoin="round"/>
</svg>
